HIERARCHY
ROOT hips
{
  OFFSET 0 10.680822821525009 1.3929502295107734
  CHANNELS 6 Xposition Yposition Zposition Yrotation Xrotation Zrotation
  JOINT spine
  {
    OFFSET -7.042017322922631e-31 0.6058489940359625 0
    CHANNELS 3 Yrotation Xrotation Zrotation
    JOINT chest
    {
      OFFSET 0 1.2699794144455032 0
      CHANNELS 3 Yrotation Xrotation Zrotation
      JOINT upperChest
      {
        OFFSET 0 1.217799211677689 0
        CHANNELS 3 Yrotation Xrotation Zrotation
        JOINT neck
        {
          OFFSET 0 1.5248826104153006 0
          CHANNELS 3 Yrotation Xrotation Zrotation
          JOINT head
          {
            OFFSET 0 0.8197772727844447 0
            CHANNELS 3 Yrotation Xrotation Zrotation
            JOINT leftEye
            {
              OFFSET 0.2793952361220866 0.6769952096623495 0.1830357412467788
              CHANNELS 3 Yrotation Xrotation Zrotation
              End Site
              {
                OFFSET 0.2793952361220866 0.6769952096623495 0.1830357412467788
              }
            }
            JOINT rightEye
            {
              OFFSET -0.27939522230689573 0.676995205357064 0.18303631459760622
              CHANNELS 3 Yrotation Xrotation Zrotation
              End Site
              {
                OFFSET -0.27939522230689573 0.676995205357064 0.18303631459760622
              }
            }
          }
        }
        JOINT leftShoulder
        {
          OFFSET 0.41486978509200423 1.1670505408695453 0
          CHANNELS 3 Yrotation Xrotation Zrotation
          JOINT leftUpperArm
          {
            OFFSET 0.9737926108153417 0 0
            CHANNELS 3 Yrotation Xrotation Zrotation
            JOINT leftLowerArm
            {
              OFFSET 2.5269332222665284 0 0
              CHANNELS 3 Yrotation Xrotation Zrotation
              JOINT leftHand
              {
                OFFSET 2.4263782738425914 0 0
                CHANNELS 3 Yrotation Xrotation Zrotation
                JOINT leftIndexProximal
                {
                  OFFSET 0.724320348022514 0.08170607082582437 0.20360061616140124
                  CHANNELS 3 Yrotation Xrotation Zrotation
                  JOINT leftIndexIntermediate
                  {
                    OFFSET 0.36548960630744587 -0.010566596513783999 -0.01414783573280308
                    CHANNELS 3 Yrotation Xrotation Zrotation
                    JOINT leftIndexDistal
                    {
                      OFFSET 0.22502819650693362 -0.007863819831430696 -0.007567681939621526
                      CHANNELS 3 Yrotation Xrotation Zrotation
                      End Site
                      {
                        OFFSET 0.22502819650693362 -0.007863819831430696 -0.007567681939621526
                      }
                    }
                  }
                }
                JOINT leftLittleProximal
                {
                  OFFSET 0.6720322998298205 0.08170601055037707 -0.3230036039466837
                  CHANNELS 3 Yrotation Xrotation Zrotation
                  JOINT leftLittleIntermediate
                  {
                    OFFSET 0.34583592281688713 5.476543019078406e-8 1.3869203337180114e-7
                    CHANNELS 3 Yrotation Xrotation Zrotation
                    JOINT leftLittleDistal
                    {
                      OFFSET 0.19925728062053938 0.003098047439490381 0.0038303983709246925
                      CHANNELS 3 Yrotation Xrotation Zrotation
                      End Site
                      {
                        OFFSET 0.19925728062053938 0.003098047439490381 0.0038303983709246925
                      }
                    }
                  }
                }
                JOINT leftMiddleProximal
                {
                  OFFSET 0.7300436596551069 0.0817073395107144 0.022661722987926763
                  CHANNELS 3 Yrotation Xrotation Zrotation
                  JOINT leftMiddleIntermediate
                  {
                    OFFSET 0.40758254347686607 -0.0000012383587111308714 2.408460318820138e-7
                    CHANNELS 3 Yrotation Xrotation Zrotation
                    JOINT leftMiddleDistal
                    {
                      OFFSET 0.2514490105498507 0.0000013869132886590307 9.738618134136345e-8
                      CHANNELS 3 Yrotation Xrotation Zrotation
                      End Site
                      {
                        OFFSET 0.2514490105498507 0.0000013869132886590307 9.738618134136345e-8
                      }
                    }
                  }
                }
                JOINT leftRingProximal
                {
                  OFFSET 0.7217261161191838 0.08170601902187746 -0.15043395722184966
                  CHANNELS 3 Yrotation Xrotation Zrotation
                  JOINT leftRingIntermediate
                  {
                    OFFSET 0.37808807487521556 0.0000013754022405443322 2.2046919317952884e-7
                    CHANNELS 3 Yrotation Xrotation Zrotation
                    JOINT leftRingDistal
                    {
                      OFFSET 0.21812105442344254 -0.002713483731960231 -0.004991354517454624
                      CHANNELS 3 Yrotation Xrotation Zrotation
                      End Site
                      {
                        OFFSET 0.21812105442344254 -0.002713483731960231 -0.004991354517454624
                      }
                    }
                  }
                }
                JOINT leftThumbProximal
                {
                  OFFSET 0.10793587079521427 -0.1652791240518252 -0.07775251827190094
                  CHANNELS 3 Yrotation Xrotation Zrotation
                  JOINT leftThumbIntermediate
                  {
                    OFFSET 0.40355819082296684 -0.017484006740276614 0.3177776014416309
                    CHANNELS 3 Yrotation Xrotation Zrotation
                    JOINT leftThumbDistal
                    {
                      OFFSET 0.2318764658022603 -0.018510186824293617 0.21396001800186287
                      CHANNELS 3 Yrotation Xrotation Zrotation
                      End Site
                      {
                        OFFSET 0.2318764658022603 -0.018510186824293617 0.21396001800186287
                      }
                    }
                  }
                }
              }
            }
          }
        }
        JOINT rightShoulder
        {
          OFFSET -0.4148697850920044 1.1670505408695453 0
          CHANNELS 3 Yrotation Xrotation Zrotation
          JOINT rightUpperArm
          {
            OFFSET -0.9737926108153414 0 0
            CHANNELS 3 Yrotation Xrotation Zrotation
            JOINT rightLowerArm
            {
              OFFSET -2.5269332222665293 0 0
              CHANNELS 3 Yrotation Xrotation Zrotation
              JOINT rightHand
              {
                OFFSET -2.42637827384259 0 0
                CHANNELS 3 Yrotation Xrotation Zrotation
                JOINT rightIndexProximal
                {
                  OFFSET -0.724320348022514 0.08170607082582437 0.20360061616140124
                  CHANNELS 3 Yrotation Xrotation Zrotation
                  JOINT rightIndexIntermediate
                  {
                    OFFSET -0.36548960630744587 -0.010566596513783999 -0.01414783573280308
                    CHANNELS 3 Yrotation Xrotation Zrotation
                    JOINT rightIndexDistal
                    {
                      OFFSET -0.22502819650693362 -0.007863819831430696 -0.007567681939621526
                      CHANNELS 3 Yrotation Xrotation Zrotation
                      End Site
                      {
                        OFFSET -0.22502819650693362 -0.007863819831430696 -0.007567681939621526
                      }
                    }
                  }
                }
                JOINT rightLittleProximal
                {
                  OFFSET -0.6720322998298205 0.08170601055037707 -0.3230036039466837
                  CHANNELS 3 Yrotation Xrotation Zrotation
                  JOINT rightLittleIntermediate
                  {
                    OFFSET -0.34583592281688713 5.476543019078406e-8 1.3869203337180114e-7
                    CHANNELS 3 Yrotation Xrotation Zrotation
                    JOINT rightLittleDistal
                    {
                      OFFSET -0.19925728062053938 0.003098047439490381 0.0038303983709246925
                      CHANNELS 3 Yrotation Xrotation Zrotation
                      End Site
                      {
                        OFFSET -0.19925728062053938 0.003098047439490381 0.0038303983709246925
                      }
                    }
                  }
                }
                JOINT rightMiddleProximal
                {
                  OFFSET -0.7300436596551069 0.0817073395107144 0.022661722987926763
                  CHANNELS 3 Yrotation Xrotation Zrotation
                  JOINT rightMiddleIntermediate
                  {
                    OFFSET -0.40758254347686607 -0.0000012383587111308714 2.408460318820138e-7
                    CHANNELS 3 Yrotation Xrotation Zrotation
                    JOINT rightMiddleDistal
                    {
                      OFFSET -0.2514490105498507 0.0000013869132886590307 9.738618134136345e-8
                      CHANNELS 3 Yrotation Xrotation Zrotation
                      End Site
                      {
                        OFFSET -0.2514490105498507 0.0000013869132886590307 9.738618134136345e-8
                      }
                    }
                  }
                }
                JOINT rightRingProximal
                {
                  OFFSET -0.7217261161191838 0.08170601902187746 -0.15043395722184966
                  CHANNELS 3 Yrotation Xrotation Zrotation
                  JOINT rightRingIntermediate
                  {
                    OFFSET -0.37808807487521556 0.0000013754022405443322 2.2046919317952884e-7
                    CHANNELS 3 Yrotation Xrotation Zrotation
                    JOINT rightRingDistal
                    {
                      OFFSET -0.21812105442344254 -0.002713483731960231 -0.004991354517454624
                      CHANNELS 3 Yrotation Xrotation Zrotation
                      End Site
                      {
                        OFFSET -0.21812105442344254 -0.002713483731960231 -0.004991354517454624
                      }
                    }
                  }
                }
                JOINT rightThumbProximal
                {
                  OFFSET -0.10793587079521427 -0.1652791240518252 -0.07775251827190094
                  CHANNELS 3 Yrotation Xrotation Zrotation
                  JOINT rightThumbIntermediate
                  {
                    OFFSET -0.40355819082296684 -0.017484006740276614 0.3177776014416309
                    CHANNELS 3 Yrotation Xrotation Zrotation
                    JOINT rightThumbDistal
                    {
                      OFFSET -0.2318764658022603 -0.018510186824293617 0.21396001800186287
                      CHANNELS 3 Yrotation Xrotation Zrotation
                      End Site
                      {
                        OFFSET -0.2318764658022603 -0.018510186824293617 0.21396001800186287
                      }
                    }
                  }
                }
              }
            }
          }
        }
      }
    }
  }
  JOINT leftUpperLeg
  {
    OFFSET 0.8486251390888677 -0.4421577294694363 0
    CHANNELS 3 Yrotation Xrotation Zrotation
    JOINT leftLowerLeg
    {
      OFFSET 0 -4.10147812638609 0
      CHANNELS 3 Yrotation Xrotation Zrotation
      JOINT leftFoot
      {
        OFFSET -0.0002543926476658853 -4.77292286812444 0.007402811231737388
        CHANNELS 3 Yrotation Xrotation Zrotation
        JOINT leftToes
        {
          OFFSET 0 -0.7027875951174846 1.2062924140498823
          CHANNELS 3 Yrotation Xrotation Zrotation
          End Site
          {
            OFFSET 0 -0.7027875951174846 1.2062924140498823
          }
        }
      }
    }
  }
  JOINT rightUpperLeg
  {
    OFFSET -0.8486251390888677 -0.4421577294694363 0
    CHANNELS 3 Yrotation Xrotation Zrotation
    JOINT rightLowerLeg
    {
      OFFSET 0 -4.10147812638609 0
      CHANNELS 3 Yrotation Xrotation Zrotation
      JOINT rightFoot
      {
        OFFSET 0.0002543926476658853 -4.77292286812444 0.007402811231737388
        CHANNELS 3 Yrotation Xrotation Zrotation
        JOINT rightToes
        {
          OFFSET 0 -0.7027875951174846 1.2062924140498823
          CHANNELS 3 Yrotation Xrotation Zrotation
          End Site
          {
            OFFSET 0 -0.7027875951174846 1.2062924140498823
          }
        }
      }
    }
  }
}
MOTION
Frames: 4
Frame Time: 0.03333333333333333
0.014864468015730381 -0.0915817936929777 0.008964978158473969 -5.277771188185999 -3.737457592798384 -3.3591287485335113 1.5777223984061783 3.285508919148225 2.8057319184684406 0.7686393936411288 2.2665428564515353 3.1236385748751996 0 0 0 -0.07902400637727433 5.62644862531132 0.4447593586162307 1.3812765076437297 -7.560900291926679 -0.2838973722424621 0 0 0 0 0 0 -17.5809022820951 1.0221356755753122 -10.793766880448086 -20.77786498732693 2.7500032464449062 -64.30526615057104 -1.444726888252092 -0.20537291561867266 0.021248301963187784 2.542150057981176 -32.90756544706965 -6.333635570125989 -1.0184323524532024 -0.5613368177075629 -7.562180883493015 1.5442352234549748 0.23659324921934863 -17.399102986463905 0.7098177220160151 0.0503764202296874 -8.047100015389583 5.391546821629328 1.0237001449397058 -27.113094183849313 1.5006232823599637 0.2978680525782895 -17.418532156372365 1.4412884063177513 0.2690547334055586 -16.518945295207956 2.5250483732183446 -0.28045503719691134 -15.729996950423265 1.5367628073881807 0.23468123364915194 -17.419556992479354 1.6224389833388502 0.26317451743367176 -18.427215775781097 3.4288173821096617 -0.02539340185806704 -21.16875680500066 1.8304695656501202 0.33830046152786253 -20.924784710555738 1.5734487114653222 0.2477395238305341 -17.87893784495463 2.0430692399757318 0.6494727444774592 4.7239485985965315 24.200970192548656 12.590147606456513 21.673102125050587 3.9481842039262016 -13.481562727157305 8.283005345821975 15.514046718070512 1.1698827702972907 13.211644838973259 29.04160166791569 10.616369848375303 58.06871582261658 6.627715179797843 -0.9361108547770024 -0.13986479349977013 -2.658735747462193 -19.713445673862783 7.268963392173403 1.2857608555171771 -0.5355692285722372 6.78968777632822 -1.1458249551582405 0.17680090118453734 17.41881701605137 -0.5602695192759567 0.03869209077402765 8.060700162776923 -4.467262115426216 0.7164909502005977 26.47433908117669 -1.0868250883705939 0.13364283081469708 17.448561199609966 -1.1785765532093415 0.1341849251998599 16.54878207410966 -2.1300875759369573 -0.3230476746716883 15.029211278517023 -1.081004864330311 0.16857338068470845 17.447398470736474 -1.2794209102391703 0.20094567122420903 18.459038825347886 -2.8524584396931125 -0.1358536304248742 20.48565427526489 -1.4285985825680085 0.2623641709996161 20.960977605078682 -1.2185347816473717 0.19642828767881138 17.90943635511804 -0.16212743561905285 -0.3069759432341332 -4.147218022244834 -28.613624158767806 13.23765579945002 -22.00302534494138 -4.484246041916947 -15.865468250651203 -11.740457154144792 15.122298268207318 -10.398574024483715 7.359694202239118 2.134018839187097 12.143583931560789 4.589905572315455 0.4170971115234215 1.2821999068522814 -7.107879945779935 0.000008962276592902143 -4.922194065818357 -0.0000022105202033049814 -10.33896071364109 0.629427932381311 3.528113480836584 -9.887322773392667 7.264148130677153 -4.412795625913938 -1.6218987156357345 -3.6611205792184185 3.335786692898311 0.000005647545917497409 -7.2828726511056185 -9.235110344768058e-7
0.01493461336940527 -0.09163138475743082 0.008715427480638027 -5.282007694242204 -3.737453314831855 -3.358514123283456 1.5777446246378533 3.285529657245668 2.805184987977302 0.7684423371992914 2.2527189034062807 3.1234942669785872 0 0 0 -0.07902187501706838 5.626446051590841 0.4447580181772369 1.3814832980073446 -7.5349503907782305 -0.2764489930679504 0 0 0 0 0 0 -17.60420643694388 1.021202352603275 -10.80394278118689 -20.94796829651994 2.845876801315216 -64.22798258318268 -1.5391655316209347 -0.21879016713839378 0.022804308020869083 2.5251171311002314 -33.033499926114075 -6.321592062371936 -1.0737630558896605 -0.5694757579239166 -7.379059405622899 1.5442356501903935 0.2365965576204346 -17.39910787476095 0.7098139870414909 0.0503841475511839 -8.047137322316152 5.358363132332019 0.9948269102297378 -26.980383962997813 1.5014958575872974 0.29819966808489484 -17.428834397010075 1.4421579905182589 0.26935134298027924 -16.52924408221488 2.4963110045636054 -0.2847974895148983 -15.519207170101277 1.5370051637336093 0.2347602083741274 -17.4223971829236 1.6226728060303277 0.2632606160783635 -18.43005120824383 3.3740763837503187 -0.049351838105304434 -20.969660550914114 1.8306063202844396 0.3383554508454551 -20.926386806491248 1.573679653187712 0.2478126288825757 -17.881643273910154 1.9469873836470986 0.5339960287413781 4.702489132362662 24.127217509750743 12.552989280131541 21.66528725548709 3.944855791805276 -13.482916554575928 8.282886893923 15.511341166977902 1.17196054217398 13.206517215723004 29.328841706089346 10.71981926785719 57.94254672390661 6.772266297150212 -0.9563239275088028 -0.14415247048993213 -2.7651175114139357 -19.832622338079318 7.3357970791946405 1.30595442826071 -0.5313416918498823 6.675191536238439 -1.1458189799091896 0.17680583708692996 17.41885429729414 -0.5602800842221282 0.038708112373762815 8.060660798328373 -4.420509948879847 0.6788308168318861 26.263741239485366 -1.0845186122543613 0.1330083818963323 17.41382248621996 -1.1761698545294932 0.13354339259503523 16.512269834472985 -2.093655815549361 -0.3321470761351169 14.846956116429167 -1.0810125469589718 0.1685893223085138 17.447396841741906 -1.2794186696282783 0.200932344269243 18.459035585939123 -2.8499145489258253 -0.1330304466684666 20.34032487592063 -1.426201248883577 0.2614348820381916 20.92335553570654 -1.216093965401144 0.19562856389592184 17.871833916358227 -0.1307803662640771 -0.329006871077337 -4.133461232317294 -28.58497055669167 13.224181609740876 -21.987879167085993 -4.498076537819301 -15.86087771281218 -11.7399587440028 15.122260487598895 -10.39934396822602 7.35905524168461 2.1385753393628386 12.139953584240466 4.590810140617429 0.4170322441752762 1.2816096948254596 -7.111859306275372 0.000007203457557723727 -4.922194065818357 -8.916158543797767e-7 -10.33952625701377 0.6232077663734317 3.531434199082912 -9.887925168096801 7.269705586692242 -4.419756379152744 -1.6222737674304477 -3.661230085735079 3.3378440280428325 0.000019515770639974705 -7.2828752332583875 -0.0000019631641424442098
0.015095897018909454 -0.09175440874424723 0.007836940698325634 -5.3068379862195565 -3.7374289304230355 -3.356989650764632 1.5777552976535745 3.28556557477628 2.8039724456308215 0.7680223068001947 2.222769376601715 3.1231781825620226 0 0 0 -0.0790227932445785 5.626446051590841 0.44475734795773986 1.3818435236326767 -7.484443353654267 -0.26632578078794117 0 0 0 0 0 0 -17.640985492374902 1.0212039536831643 -10.812438471515973 -21.40270889608947 3.1041445649530592 -64.05284287441236 -1.8367776826549171 -0.26101052544518927 0.02788982205166167 2.443530449458501 -33.45313257185714 -6.312530311114019 -1.2796746046973697 -0.6069565291975076 -6.788405556185078 1.5442391707575904 0.23658481813271376 -17.399084649719864 0.7098052898865042 0.05039595364445182 -8.047125009105805 5.22187689931608 0.876939173525138 -26.533910938027976 1.5031261239509972 0.29878910006481946 -17.448093036638586 1.4437888043470102 0.2699013927423466 -16.548525342485895 2.3419483924753663 -0.3269837145503721 -14.92388133946966 1.5381533617495173 0.23514374272896005 -17.43578423805413 1.6238199434378553 0.2636350264605379 -18.44358579646846 3.174450731999153 -0.13802019396188325 -20.379640323547484 1.8321493252736405 0.3389430441406832 -20.94485359998802 1.575677169729586 0.24845181785297096 -17.90517874636773 1.537459780517648 0.00543295275424061 4.567954788153658 23.627933896447594 12.301931856969981 21.610483967524775 3.9077382444328 -13.498093643094913 8.289240440382313 15.53456713400589 1.176232868705017 13.173146201025512 29.815287765423797 10.819190860045895 57.60378032649792 7.192803574499405 -1.0150345718227127 -0.1568167136041967 -3.0317874373794638 -20.183091001209185 7.612158735171298 1.3154233271218845 -0.5205845977868025 6.51618089916428 -1.1474936928927821 0.17733203097006994 17.444704202553844 -0.5620247479105975 0.03894797279763762 8.086494860330697 -4.326276426236325 0.6023728434878237 25.986232547468454 -1.0828274722373656 0.13255423979806777 17.388177601844646 -1.1741885637755427 0.1330099160249867 16.48236514687734 -2.045232781373473 -0.34276302843259926 14.572590140042262 -1.081011586630391 0.1685642159185601 17.447393583752675 -1.2794205901519002 0.20094883287418755 18.459048005186173 -2.8570929254124944 -0.12447438582270137 20.175253851728446 -1.4224109997144383 0.2599960717855271 20.864115738556535 -1.2122403797553851 0.19435331216811036 17.81253752676965 -0.041111201375745234 -0.3936116367016636 -4.0837904113467225 -28.56936053575681 13.213930217431619 -21.978562892823938 -4.499101662634403 -15.860559964833662 -11.739904626751407 15.122059859056378 -10.401706761215971 7.360601832888775 2.166943444328417 12.13340563519904 4.593756911175091 0.41681919467911926 1.2804620429267863 -7.123605440682182 -0.00000937487200412392 -4.922187638814113 -6.507156678538785e-7 -10.339668707024751 0.6034069273421216 3.5388283324449357 -9.87193204444286 7.2884587430574355 -4.431492159428054 -1.6227911163499815 -3.6617528084327486 3.3386371297973905 0.000012164242356547995 -7.285700117297256 -0.000004446867633902651
0.0153098925948143 -0.0918879231485441 0.006258553359657526 -5.355257492536034 -3.737373744658209 -3.3548012405213905 1.5758213652289574 3.2856277890734336 2.8023253689983214 0.7628502043430156 2.1913316673742136 3.121068450649825 0 0 0 -0.07902124499235337 5.626439617289691 0.4447580717947967 1.375490650289565 -7.439308877626631 -0.2583999633473667 0 0 0 0 0 0 -17.670412442301682 1.022929704790336 -10.809581636336933 -21.940152167621847 3.4200835662567934 -63.84441593147129 -2.283173406073094 -0.3242909490210183 0.03593304914728425 2.244868476123607 -34.020660521196035 -6.345491495360844 -1.5912361953613638 -0.6666637036411911 -5.986645328515689 1.544242584640922 0.23659066119591904 -17.399097076956622 0.7098107322779722 0.050373161881348404 -8.04710424222521 5.009141708119485 0.6984858925388515 -25.895238667150544 1.5044379656387246 0.29925630737500936 -17.463760125662336 1.445110027418637 0.27035064275564274 -16.564187761553253 2.056968315549502 -0.41361244772533035 -14.194240109500175 1.5396593484670098 0.23559323166591006 -17.45343332325912 1.6254178709185616 0.26417504402011316 -18.46230041084652 2.88467594341186 -0.2619429893791052 -19.599026004416704 1.8349238571353665 0.3399988605077724 -20.978083878056108 1.5792106524593883 0.24961034627313805 -17.94665123514822 0.9038637567352579 -0.8332448947762305 4.3788481655439515 22.746812562628193 11.860133204673904 21.519644127036116 3.8314053695434556 -13.529776709633579 8.302526316838637 15.598125578897461 1.1862355652843315 13.113623488321526 30.135164178873858 10.753506391372714 57.154182825206284 7.82871849453442 -1.103638345116959 -0.1767550751802646 -3.2693778717626727 -20.667014081600044 7.988776514015416 1.3100054096969986 -0.5076044213168698 6.375938863675147 -1.1516680068150533 0.17862431699990564 17.508231569895248 -0.5663368008123391 0.03957863819593002 8.15001630867302 -4.2260875212477185 0.5218025029210641 25.74295205021713 -1.0842393482560582 0.1329467499452515 17.409317852797003 -1.1752418584764877 0.13327588057410653 16.498485115820134 -2.0062232449275106 -0.34954382248395593 14.310431698265797 -1.081002730266787 0.1685717264911093 17.447400099731016 -1.2794281655506035 0.20095799765704012 18.45902640610087 -2.8776197042160767 -0.1104629436293134 20.067347917129755 -1.419243155446099 0.2587818331348069 20.814549774594347 -1.2089868011927067 0.19328287399433855 17.76282790999355 0.06915388190249358 -0.47230193763019623 -4.039169204031301 -28.609690971355757 13.228444891550463 -21.991395406622548 -4.486114869095468 -15.864852267538014 -11.7403573127106 15.121675547961642 -10.404541789195589 7.368839785398748 2.217007967784621 12.128827930160883 4.594801815056874 0.4167639630930005 1.284080281218558 -7.131982770715019 0.000010865481588884116 -4.922197493553979 -0.000005660351193751048 -10.331717430663682 0.5747372402290019 3.543694750554941 -9.842199378257952 7.314827071248394 -4.436787773017281 -1.6225036161760718 -3.661023477748051 3.334821639426961 0.00003684009979426282 -7.295125133481337 -0.000006490299466188507
